<mxfile host="app.diagrams.net" modified="2023-01-28T07:11:36.692Z" agent="5.0 (Windows NT 10.0; Win64; x64) AppleWebKit/537.36 (KHTML, like Gecko) Chrome/109.0.0.0 Safari/537.36 Edg/109.0.1518.70" etag="90bLpA8ru_8HK-CdesoP" version="20.8.13" type="github">
  <diagram name="第 1 页" id="uVB4zvXaumi5qdr4Yra4">
    <mxGraphModel dx="1146" dy="766" grid="1" gridSize="10" guides="1" tooltips="1" connect="1" arrows="1" fold="1" page="1" pageScale="1" pageWidth="827" pageHeight="1169" math="0" shadow="0">
      <root>
        <mxCell id="0" />
        <mxCell id="1" parent="0" />
        <mxCell id="TRXT9HQxhYtgr1BYwbM0-1" value="" style="endArrow=none;dashed=1;html=1;dashPattern=1 3;strokeWidth=2;rounded=0;" edge="1" parent="1">
          <mxGeometry width="50" height="50" relative="1" as="geometry">
            <mxPoint x="95" y="270" as="sourcePoint" />
            <mxPoint x="305" y="270" as="targetPoint" />
          </mxGeometry>
        </mxCell>
        <mxCell id="TRXT9HQxhYtgr1BYwbM0-7" style="edgeStyle=orthogonalEdgeStyle;rounded=0;orthogonalLoop=1;jettySize=auto;html=1;exitX=1;exitY=0.5;exitDx=0;exitDy=0;fontSize=16;" edge="1" parent="1" source="TRXT9HQxhYtgr1BYwbM0-2" target="TRXT9HQxhYtgr1BYwbM0-6">
          <mxGeometry relative="1" as="geometry" />
        </mxCell>
        <mxCell id="TRXT9HQxhYtgr1BYwbM0-9" style="edgeStyle=orthogonalEdgeStyle;rounded=0;orthogonalLoop=1;jettySize=auto;html=1;exitX=0.5;exitY=1;exitDx=0;exitDy=0;fontSize=14;" edge="1" parent="1" source="TRXT9HQxhYtgr1BYwbM0-2" target="TRXT9HQxhYtgr1BYwbM0-8">
          <mxGeometry relative="1" as="geometry" />
        </mxCell>
        <mxCell id="TRXT9HQxhYtgr1BYwbM0-2" value="&lt;font style=&quot;font-size: 14px;&quot;&gt;Attribute Classification&lt;/font&gt;" style="rounded=0;whiteSpace=wrap;html=1;" vertex="1" parent="1">
          <mxGeometry x="140" y="180" width="120" height="60" as="geometry" />
        </mxCell>
        <mxCell id="TRXT9HQxhYtgr1BYwbM0-5" style="edgeStyle=orthogonalEdgeStyle;rounded=0;orthogonalLoop=1;jettySize=auto;html=1;exitX=1;exitY=0.5;exitDx=0;exitDy=0;entryX=0;entryY=0.5;entryDx=0;entryDy=0;fontSize=16;" edge="1" parent="1" source="TRXT9HQxhYtgr1BYwbM0-3" target="TRXT9HQxhYtgr1BYwbM0-2">
          <mxGeometry relative="1" as="geometry" />
        </mxCell>
        <mxCell id="TRXT9HQxhYtgr1BYwbM0-3" value="&lt;font style=&quot;font-size: 16px;&quot;&gt;D&lt;/font&gt;" style="text;html=1;strokeColor=none;fillColor=none;align=center;verticalAlign=middle;whiteSpace=wrap;rounded=0;" vertex="1" parent="1">
          <mxGeometry x="20" y="195" width="60" height="30" as="geometry" />
        </mxCell>
        <mxCell id="TRXT9HQxhYtgr1BYwbM0-6" value="&lt;font style=&quot;font-size: 16px;&quot;&gt;M&lt;/font&gt;" style="text;html=1;strokeColor=none;fillColor=none;align=center;verticalAlign=middle;whiteSpace=wrap;rounded=0;" vertex="1" parent="1">
          <mxGeometry x="320" y="195" width="60" height="30" as="geometry" />
        </mxCell>
        <mxCell id="TRXT9HQxhYtgr1BYwbM0-8" value="&lt;font style=&quot;font-size: 14px;&quot;&gt;Subset Selection&lt;/font&gt;" style="rounded=0;whiteSpace=wrap;html=1;fontSize=16;" vertex="1" parent="1">
          <mxGeometry x="140" y="290" width="120" height="60" as="geometry" />
        </mxCell>
        <mxCell id="TRXT9HQxhYtgr1BYwbM0-12" style="edgeStyle=orthogonalEdgeStyle;rounded=0;orthogonalLoop=1;jettySize=auto;html=1;exitX=1;exitY=0.5;exitDx=0;exitDy=0;entryX=0;entryY=0.5;entryDx=0;entryDy=0;fontSize=14;" edge="1" parent="1" source="TRXT9HQxhYtgr1BYwbM0-11" target="TRXT9HQxhYtgr1BYwbM0-8">
          <mxGeometry relative="1" as="geometry" />
        </mxCell>
        <mxCell id="TRXT9HQxhYtgr1BYwbM0-11" value="&lt;font style=&quot;font-size: 16px;&quot;&gt;K&lt;sub&gt;s&lt;/sub&gt;&lt;/font&gt;" style="text;html=1;strokeColor=none;fillColor=none;align=center;verticalAlign=middle;whiteSpace=wrap;rounded=0;" vertex="1" parent="1">
          <mxGeometry x="20" y="305" width="60" height="30" as="geometry" />
        </mxCell>
      </root>
    </mxGraphModel>
  </diagram>
</mxfile>
